<?xml version="1.0" encoding="UTF-8" standalone="no"?>
<!DOCTYPE svg PUBLIC "-//W3C//DTD SVG 1.1//EN" "http://www.w3.org/Graphics/SVG/1.1/DTD/svg11.dtd">
<svg width="100%" height="100%" viewBox="0 0 902 902" version="1.1" xmlns="http://www.w3.org/2000/svg" xmlns:xlink="http://www.w3.org/1999/xlink" xml:space="preserve" xmlns:serif="http://www.serif.com/" style="fill-rule:evenodd;clip-rule:evenodd;stroke-linejoin:round;">
    <g id="Artboard1" transform="matrix(1,0,0,1,-234.689,-367.449)">
        <rect x="234.689" y="367.449" width="901.208" height="901.208" style="fill:none;"/>
        <g transform="matrix(1,0,0,1,64.5251,-0.112134)">
            <g transform="matrix(4.16667,0,0,4.16667,602.22,1177.64)">
                <path d="M0,-161.291C0,-161.291 91.559,-174.189 80.646,-92.693C80.646,-92.693 96.756,-69.449 96.945,-64.204C96.945,-64.204 93.969,-62.645 87.236,-62.362C87.165,-62.362 88.299,-51.165 87.449,-46.204L82.772,-43.37C82.772,-43.37 82.913,-31.181 78.378,-19.559C78.378,-19.559 73.843,-18.043 63.921,-19.013C54,-19.984 45.496,-21.118 45.496,-21.118C45.496,-21.118 39.685,-5.244 44.079,12.898L-33.591,12.898C-33.591,12.898 -18.85,-24.803 -22.677,-44.078C-22.677,-44.078 -41.528,-61.653 -46.205,-77.952" style="fill:none;fill-rule:nonzero;stroke:black;stroke-width:7px;"/>
            </g>
            <g transform="matrix(4.16667,0,0,4.16667,666.192,600.723)">
                <path d="M0,64.576C0.031,63.912 0.125,63.339 0.07,62.78C-0.08,61.233 -0.28,59.691 -0.482,58.15C-0.64,56.94 -0.341,56.022 0.764,55.297C1.933,54.529 2.994,53.584 4.039,52.645C4.968,51.81 5.914,51.568 7.109,52.029C8.645,52.622 10.227,53.096 11.781,53.647C13.05,54.097 14.007,53.637 14.629,52.566C15.802,50.549 16.922,48.498 17.997,46.427C18.63,45.207 18.464,44.117 17.258,43.236C16.004,42.322 14.855,41.266 13.598,40.357C12.618,39.648 12.245,38.797 12.409,37.604C12.62,36.068 12.604,34.489 12.942,32.986C13.12,32.194 13.686,31.28 14.354,30.852C15.775,29.939 17.373,29.299 18.907,28.565C20.205,27.943 20.654,26.98 20.235,25.583C19.579,23.395 18.959,21.197 18.324,19.003C17.923,17.616 17.009,17.044 15.58,17.231C14.038,17.432 12.486,17.562 10.95,17.798C9.711,17.989 8.799,17.617 8.047,16.607C7.123,15.364 6.014,14.249 5.174,12.956C4.779,12.348 4.564,11.394 4.723,10.701C5.09,9.103 5.721,7.565 6.271,6.011C6.85,4.374 6.543,3.463 5.04,2.625C3.086,1.536 1.127,0.456 -0.845,-0.601C-2.184,-1.319 -3.089,-1.121 -4.032,0.051C-5.097,1.373 -6.052,2.802 -7.248,3.989C-7.807,4.543 -8.82,4.884 -9.63,4.889C-11.171,4.898 -12.748,4.735 -14.242,4.368C-15.075,4.163 -16.015,3.565 -16.477,2.862C-17.378,1.492 -17.998,-0.065 -18.693,-1.564C-19.273,-2.815 -20.188,-3.307 -21.522,-2.932C-23.814,-2.288 -26.109,-1.652 -28.387,-0.959C-29.628,-0.582 -30.16,0.34 -30.022,1.624C-29.85,3.217 -29.686,4.813 -29.461,6.399C-29.277,7.692 -29.682,8.628 -30.777,9.382C-31.891,10.149 -32.942,11.021 -33.95,11.926C-34.926,12.802 -35.909,13.012 -37.151,12.516C-38.635,11.923 -40.178,11.477 -41.693,10.959C-43.018,10.505 -43.974,10.982 -44.624,12.146C-45.738,14.142 -46.835,16.147 -47.919,18.16C-48.523,19.283 -48.41,20.331 -47.398,21.167C-46.09,22.245 -44.761,23.3 -43.416,24.331C-42.521,25.017 -42.146,25.829 -42.335,26.984C-42.578,28.467 -42.77,29.969 -42.817,31.467C-42.857,32.72 -43.45,33.447 -44.499,33.944C-45.903,34.611 -47.314,35.267 -48.704,35.963C-50.22,36.723 -50.585,37.541 -50.131,39.165C-49.556,41.225 -48.972,43.283 -48.339,45.326C-47.791,47.098 -47.17,47.492 -45.339,47.312C-43.792,47.161 -42.246,46.996 -40.708,46.783C-39.511,46.617 -38.663,47.048 -37.962,48.013C-37.136,49.151 -36.275,50.275 -35.324,51.308C-34.463,52.243 -34.247,53.192 -34.697,54.37C-35.232,55.775 -35.691,57.208 -36.2,58.622C-36.766,60.195 -36.471,61.127 -35.067,61.916C-33.116,63.011 -31.157,64.092 -29.185,65.148C-27.732,65.928 -26.802,65.707 -25.77,64.401C-24.777,63.145 -23.77,61.9 -22.809,60.62C-22.142,59.732 -21.3,59.515 -20.244,59.666C-18.807,59.87 -17.361,60.061 -15.913,60.125C-14.641,60.182 -13.829,60.724 -13.311,61.867C-12.65,63.328 -11.922,64.758 -11.225,66.203C-10.629,67.44 -9.667,67.883 -8.349,67.508C-6.059,66.857 -3.764,66.217 -1.491,65.507C-0.971,65.345 -0.535,64.919 0,64.576M-27.638,25.237C-23.785,18.27 -14.99,15.703 -7.998,19.506C-0.846,23.396 1.64,32.22 -2.368,39.485C-6.146,46.334 -15,48.875 -21.928,45.1C-29.019,41.235 -31.572,32.354 -27.638,25.237" style="fill-rule:nonzero;"/>
            </g>
            <g transform="matrix(4.16667,0,0,4.16667,512.755,414.155)">
                <path d="M0,46.73C0.022,46.25 0.09,45.835 0.051,45.43C-0.058,44.311 -0.203,43.195 -0.349,42.08C-0.463,41.204 -0.247,40.54 0.553,40.015C1.399,39.46 2.167,38.776 2.923,38.096C3.595,37.492 4.28,37.317 5.144,37.65C6.256,38.08 7.401,38.423 8.525,38.821C9.443,39.147 10.136,38.814 10.586,38.039C11.435,36.579 12.246,35.096 13.023,33.597C13.481,32.714 13.361,31.925 12.488,31.288C11.581,30.626 10.749,29.862 9.84,29.204C9.131,28.691 8.861,28.076 8.98,27.212C9.133,26.101 9.121,24.958 9.365,23.87C9.494,23.297 9.904,22.636 10.387,22.326C11.416,21.666 12.572,21.203 13.682,20.671C14.621,20.221 14.945,19.524 14.643,18.514C14.168,16.93 13.719,15.339 13.26,13.752C12.97,12.748 12.309,12.334 11.274,12.469C10.158,12.615 9.035,12.709 7.924,12.88C7.027,13.018 6.367,12.749 5.823,12.018C5.154,11.119 4.352,10.312 3.744,9.376C3.458,8.936 3.303,8.246 3.418,7.744C3.683,6.588 4.14,5.475 4.538,4.35C4.957,3.166 4.735,2.507 3.647,1.9C2.233,1.112 0.815,0.331 -0.612,-0.434C-1.581,-0.953 -2.235,-0.81 -2.918,0.038C-3.688,0.994 -4.379,2.028 -5.245,2.887C-5.649,3.288 -6.383,3.535 -6.969,3.539C-8.084,3.545 -9.225,3.427 -10.306,3.161C-10.909,3.013 -11.589,2.58 -11.924,2.071C-12.575,1.081 -13.024,-0.046 -13.527,-1.131C-13.947,-2.036 -14.608,-2.393 -15.574,-2.121C-17.233,-1.655 -18.894,-1.195 -20.542,-0.693C-21.44,-0.42 -21.825,0.246 -21.725,1.176C-21.601,2.329 -21.482,3.483 -21.319,4.631C-21.186,5.567 -21.479,6.244 -22.272,6.79C-23.078,7.345 -23.838,7.976 -24.567,8.63C-25.274,9.265 -25.985,9.417 -26.884,9.058C-27.958,8.628 -29.074,8.306 -30.17,7.931C-31.129,7.603 -31.821,7.947 -32.291,8.79C-33.098,10.234 -33.891,11.685 -34.675,13.142C-35.113,13.954 -35.031,14.713 -34.298,15.317C-33.352,16.098 -32.391,16.861 -31.417,17.607C-30.77,18.104 -30.498,18.691 -30.635,19.527C-30.811,20.6 -30.95,21.687 -30.984,22.772C-31.013,23.678 -31.442,24.204 -32.201,24.564C-33.217,25.047 -34.238,25.521 -35.244,26.025C-36.341,26.575 -36.605,27.166 -36.277,28.342C-35.861,29.833 -35.438,31.322 -34.98,32.8C-34.583,34.082 -34.134,34.367 -32.809,34.237C-31.69,34.128 -30.571,34.008 -29.458,33.854C-28.591,33.734 -27.978,34.046 -27.471,34.745C-26.873,35.568 -26.25,36.381 -25.561,37.129C-24.938,37.806 -24.782,38.492 -25.108,39.345C-25.495,40.361 -25.828,41.398 -26.196,42.422C-26.605,43.56 -26.392,44.234 -25.375,44.805C-23.964,45.598 -22.546,46.38 -21.119,47.144C-20.068,47.708 -19.395,47.548 -18.648,46.604C-17.93,45.695 -17.201,44.793 -16.505,43.867C-16.023,43.225 -15.413,43.068 -14.649,43.177C-13.609,43.325 -12.563,43.462 -11.515,43.509C-10.594,43.55 -10.007,43.943 -9.633,44.77C-9.154,45.827 -8.627,46.862 -8.123,47.907C-7.692,48.802 -6.995,49.123 -6.042,48.852C-4.384,48.38 -2.724,47.917 -1.079,47.404C-0.703,47.286 -0.387,46.978 0,46.73M-20,18.263C-17.212,13.221 -10.847,11.364 -5.788,14.116C-0.612,16.931 1.187,23.316 -1.714,28.574C-4.447,33.529 -10.854,35.369 -15.867,32.636C-20.999,29.84 -22.847,23.413 -20,18.263" style="fill-rule:nonzero;"/>
            </g>
            <g transform="matrix(4.16667,0,0,4.16667,387.081,643.229)">
                <path d="M0,46.73C0.022,46.25 0.09,45.835 0.051,45.43C-0.057,44.311 -0.203,43.195 -0.349,42.08C-0.463,41.204 -0.247,40.54 0.553,40.015C1.399,39.46 2.167,38.776 2.923,38.096C3.595,37.492 4.28,37.317 5.144,37.65C6.256,38.08 7.401,38.423 8.525,38.821C9.443,39.147 10.136,38.814 10.586,38.039C11.435,36.579 12.246,35.096 13.023,33.597C13.481,32.714 13.361,31.925 12.488,31.288C11.581,30.626 10.749,29.862 9.84,29.204C9.131,28.691 8.861,28.076 8.98,27.212C9.133,26.101 9.121,24.958 9.365,23.87C9.494,23.297 9.904,22.636 10.387,22.326C11.416,21.666 12.572,21.203 13.682,20.671C14.621,20.221 14.946,19.524 14.643,18.514C14.168,16.93 13.719,15.339 13.26,13.752C12.97,12.748 12.309,12.334 11.274,12.469C10.159,12.615 9.035,12.709 7.924,12.88C7.027,13.018 6.367,12.749 5.823,12.018C5.154,11.119 4.352,10.312 3.744,9.376C3.458,8.936 3.303,8.246 3.418,7.744C3.683,6.588 4.14,5.475 4.538,4.35C4.957,3.166 4.735,2.507 3.647,1.9C2.233,1.112 0.815,0.331 -0.611,-0.434C-1.58,-0.954 -2.235,-0.81 -2.918,0.038C-3.688,0.994 -4.379,2.028 -5.245,2.887C-5.649,3.288 -6.382,3.535 -6.969,3.539C-8.084,3.545 -9.225,3.427 -10.306,3.161C-10.908,3.013 -11.589,2.58 -11.923,2.071C-12.575,1.081 -13.024,-0.047 -13.527,-1.131C-13.947,-2.036 -14.608,-2.393 -15.574,-2.121C-17.233,-1.655 -18.894,-1.195 -20.542,-0.693C-21.439,-0.42 -21.825,0.246 -21.725,1.175C-21.601,2.329 -21.482,3.483 -21.319,4.631C-21.186,5.567 -21.479,6.244 -22.271,6.79C-23.078,7.345 -23.838,7.976 -24.567,8.63C-25.274,9.265 -25.985,9.417 -26.884,9.058C-27.958,8.628 -29.074,8.306 -30.17,7.931C-31.129,7.603 -31.821,7.947 -32.291,8.79C-33.098,10.234 -33.891,11.685 -34.675,13.142C-35.113,13.954 -35.031,14.713 -34.298,15.317C-33.352,16.098 -32.391,16.861 -31.417,17.607C-30.77,18.104 -30.498,18.691 -30.635,19.527C-30.811,20.6 -30.95,21.687 -30.984,22.772C-31.012,23.678 -31.442,24.204 -32.201,24.564C-33.217,25.047 -34.238,25.521 -35.244,26.025C-36.341,26.575 -36.605,27.166 -36.277,28.342C-35.861,29.833 -35.438,31.322 -34.98,32.8C-34.583,34.082 -34.134,34.367 -32.809,34.237C-31.69,34.128 -30.571,34.008 -29.458,33.854C-28.591,33.734 -27.978,34.046 -27.471,34.745C-26.873,35.568 -26.25,36.381 -25.561,37.129C-24.938,37.806 -24.782,38.492 -25.108,39.345C-25.495,40.361 -25.827,41.398 -26.196,42.422C-26.605,43.56 -26.392,44.234 -25.375,44.805C-23.964,45.598 -22.546,46.38 -21.119,47.144C-20.068,47.708 -19.395,47.548 -18.648,46.604C-17.929,45.695 -17.201,44.793 -16.505,43.867C-16.023,43.225 -15.413,43.068 -14.649,43.177C-13.609,43.325 -12.563,43.462 -11.515,43.509C-10.594,43.55 -10.007,43.943 -9.633,44.77C-9.154,45.827 -8.627,46.862 -8.123,47.907C-7.692,48.802 -6.995,49.123 -6.042,48.852C-4.384,48.38 -2.724,47.917 -1.079,47.404C-0.703,47.286 -0.387,46.978 0,46.73M-20,18.263C-17.212,13.221 -10.847,11.364 -5.788,14.116C-0.612,16.931 1.187,23.316 -1.714,28.574C-4.447,33.529 -10.854,35.369 -15.867,32.636C-20.999,29.84 -22.847,23.413 -20,18.263" style="fill:rgb(123,197,179);fill-rule:nonzero;"/>
            </g>
        </g>
    </g>
</svg>
