<?xml version="1.0" standalone="no"?>
<!DOCTYPE svg PUBLIC "-//W3C//DTD SVG 20010904//EN"
 "http://www.w3.org/TR/2001/REC-SVG-20010904/DTD/svg10.dtd">
<svg version="1.0" xmlns="http://www.w3.org/2000/svg"
 width="700.000000pt" height="700.000000pt" viewBox="0 0 700.000000 700.000000"
 preserveAspectRatio="xMidYMid meet">
<metadata>
Created by potrace 1.14, written by Peter Selinger 2001-2017
</metadata>
<g transform="translate(0.000000,700.000000) scale(0.100000,-0.100000)"
fill="#000000" stroke="none">
<path d="M2070 6684 c-77 -23 -127 -54 -116 -73 2 -3 7 -40 11 -83 7 -84 11
-75 -75 -148 -49 -42 -65 -44 -154 -16 -73 24 -82 24 -103 11 -13 -9 -23 -19
-23 -24 0 -5 -18 -40 -40 -79 -22 -38 -40 -78 -40 -90 0 -13 18 -36 47 -59 90
-73 95 -81 88 -137 -4 -28 -8 -63 -9 -78 -4 -40 -23 -57 -93 -90 -87 -40 -90
-48 -56 -170 32 -116 39 -122 131 -112 68 7 62 7 89 5 27 -1 123 -116 123
-147 0 -11 -11 -52 -24 -90 -17 -47 -21 -74 -15 -86 10 -18 161 -107 193 -114
19 -4 57 31 110 100 l28 38 79 -6 c44 -3 87 -10 97 -15 10 -5 35 -43 55 -84
21 -43 45 -77 55 -79 18 -5 103 17 191 49 l43 16 -7 71 c-12 116 -6 139 43
169 15 8 37 25 50 37 32 30 47 31 126 4 38 -13 78 -24 88 -24 31 0 135 183
123 218 -3 9 -26 33 -52 52 -82 62 -85 67 -80 140 8 101 17 115 96 155 39 19
75 43 80 53 13 24 -40 210 -65 229 -9 7 -31 10 -48 8 -86 -12 -129 -14 -145
-5 -30 16 -101 115 -101 141 0 14 9 53 21 87 12 35 19 73 15 85 -6 25 -167
117 -204 117 -14 0 -36 -19 -63 -56 -23 -30 -54 -61 -68 -68 -29 -15 -112 -13
-154 3 -27 10 -87 92 -87 118 0 19 -37 53 -57 52 -10 0 -56 -12 -103 -25z
m403 -507 c113 -60 176 -173 172 -308 -7 -219 -226 -375 -436 -310 -96 30
-163 88 -207 181 -23 47 -27 68 -27 145 0 83 3 95 35 153 93 173 289 232 463
139z"/>
<path d="M3627 6064 c-1 -1 -54 -5 -117 -9 -181 -10 -165 -4 -163 -61 4 -81
24 -185 35 -178 29 18 508 26 703 11 343 -25 681 -111 940 -237 197 -97 378
-231 485 -361 25 -30 48 -56 51 -59 3 -3 27 -36 53 -75 85 -126 174 -329 206
-470 20 -85 20 -89 26 -130 3 -22 7 -50 9 -61 19 -87 25 -382 12 -529 -4 -44
-10 -114 -13 -155 l-5 -75 126 -190 c178 -268 365 -583 365 -613 0 -12 -92
-28 -187 -31 -13 -1 -37 -14 -55 -30 -37 -33 -35 -11 -26 -349 l6 -182 -27
-18 c-14 -10 -39 -24 -54 -32 -38 -19 -77 -66 -78 -93 -8 -187 -22 -307 -53
-462 -8 -39 -38 -151 -51 -190 -11 -33 -19 -41 -46 -47 -46 -9 -315 -3 -419
10 -47 6 -116 14 -155 18 -38 3 -78 8 -88 10 -10 2 -48 6 -85 10 -36 3 -75 8
-87 10 -11 2 -45 7 -76 10 -62 7 -110 -10 -129 -46 -25 -46 -74 -233 -85 -326
-4 -27 -8 -56 -10 -64 -26 -99 -25 -532 2 -637 l5 -23 -1107 0 c-1050 0 -1107
1 -1100 18 23 60 125 386 154 492 59 216 120 497 136 625 3 28 8 64 10 80 24
185 22 428 -6 535 -6 25 -40 68 -115 145 -185 190 -358 406 -470 588 -68 109
-151 278 -160 325 -4 19 -12 36 -19 38 -13 5 -195 -43 -207 -55 -4 -3 4 -37
17 -74 100 -285 345 -639 675 -978 49 -50 67 -76 69 -101 11 -89 2 -347 -14
-438 -3 -14 -7 -47 -11 -75 -3 -27 -8 -53 -10 -56 -1 -3 -6 -28 -10 -55 -3
-27 -8 -52 -10 -55 -2 -4 -6 -24 -9 -45 -9 -57 -90 -371 -131 -504 -46 -151
-145 -442 -154 -455 -4 -5 -10 -28 -13 -51 -7 -51 20 -100 66 -118 26 -11 280
-13 1312 -12 1205 1 1282 2 1306 19 46 31 60 85 39 156 -5 19 -12 51 -15 72
-3 21 -8 53 -12 71 -9 56 -11 420 -2 483 5 33 11 76 14 95 5 40 10 64 27 138
l11 53 51 -6 c88 -9 140 -15 181 -20 22 -3 65 -8 95 -11 30 -3 69 -7 87 -9
295 -37 593 -18 648 41 31 33 105 248 121 353 3 18 8 43 10 55 13 57 25 138
30 201 4 39 8 77 10 85 1 8 3 32 3 52 1 35 5 41 64 78 66 41 83 62 93 120 5
31 6 308 1 385 -2 29 0 30 58 41 115 21 177 44 213 80 29 29 33 39 31 76 -8
120 -146 382 -416 790 l-104 157 6 63 c14 152 16 190 16 308 1 115 -8 277 -17
325 -2 11 -7 43 -10 70 -13 117 -70 318 -130 458 -123 288 -339 539 -622 721
-146 95 -362 192 -547 246 -38 11 -83 24 -100 29 -61 19 -299 64 -400 76 -27
3 -66 8 -85 10 -102 13 -552 28 -563 19z m2581 -3472 c-19 -24 -24 -26 -29
-13 -10 25 1 41 28 41 l25 0 -24 -28z"/>
<path d="M3031 5250 c-75 -23 -130 -45 -139 -57 -13 -17 -11 -115 4 -198 9
-52 -13 -87 -97 -152 -48 -37 -91 -63 -105 -63 -13 0 -64 14 -114 30 -50 17
-101 30 -113 30 -20 0 -67 -36 -67 -51 0 -3 -25 -50 -55 -104 -30 -55 -55
-112 -55 -127 0 -22 17 -41 88 -100 48 -39 91 -77 95 -83 7 -9 4 -68 -9 -200
-5 -50 -20 -64 -131 -119 -96 -48 -117 -69 -109 -111 13 -73 72 -247 89 -266
18 -20 26 -21 96 -15 42 4 92 10 113 12 21 3 47 0 61 -8 34 -18 147 -163 149
-191 1 -13 -13 -69 -32 -124 -28 -83 -32 -105 -23 -125 13 -28 241 -158 276
-158 28 1 52 21 108 95 26 33 56 68 67 79 22 19 28 19 205 2 52 -5 68 -23 118
-124 52 -105 62 -115 102 -115 34 0 218 53 265 75 26 13 27 17 26 83 0 39 -3
95 -6 125 -5 54 10 110 32 110 5 0 15 6 22 13 35 33 115 94 131 100 10 4 65
-9 128 -30 140 -48 140 -48 226 105 87 156 86 160 -22 246 -47 37 -90 77 -96
88 -7 13 -8 47 -4 92 13 148 21 161 140 222 127 63 127 63 81 223 -39 138 -56
170 -89 172 -30 2 -24 2 -97 -6 -137 -15 -131 -16 -180 34 -25 25 -60 66 -77
91 -37 55 -37 88 1 199 14 41 26 85 26 97 0 30 -38 57 -173 128 -126 66 -128
65 -197 -24 -77 -100 -94 -112 -161 -115 -76 -3 -165 18 -194 45 -13 12 -41
59 -64 105 -41 83 -62 106 -98 104 -10 0 -74 -18 -142 -39z m443 -646 c123
-26 263 -139 315 -256 128 -284 -41 -611 -344 -663 -104 -18 -173 -8 -286 39
-58 24 -135 91 -178 154 -131 194 -106 440 63 606 107 106 276 153 430 120z"/>
<path d="M1085 4904 c-44 -13 -86 -32 -93 -41 -8 -12 -10 -38 -6 -87 3 -39 7
-73 9 -76 9 -17 -22 -54 -80 -96 l-67 -47 -71 24 c-117 39 -113 40 -177 -76
-54 -99 -56 -110 -18 -143 18 -15 49 -43 71 -62 l39 -34 -6 -79 c-3 -43 -10
-86 -15 -95 -5 -10 -42 -33 -81 -51 -43 -20 -75 -42 -79 -54 -10 -27 43 -208
65 -224 16 -12 59 -11 142 2 36 6 57 -6 102 -60 61 -74 63 -82 33 -170 -21
-65 -24 -80 -13 -100 7 -13 20 -26 29 -29 9 -2 48 -22 87 -44 51 -28 76 -37
91 -31 11 4 42 35 68 68 45 57 55 64 95 64 34 -1 116 -11 132 -18 9 -3 34 -41
55 -83 l38 -77 40 1 c49 1 179 40 198 59 14 13 14 31 2 136 l-6 56 53 45 c89
76 85 75 191 39 61 -20 70 -21 90 -8 27 18 97 141 104 183 5 29 0 36 -61 85
-36 29 -67 60 -67 68 -11 125 12 178 92 216 87 42 96 55 80 113 -24 93 -41
147 -51 162 -10 16 -68 19 -149 7 -43 -7 -46 -5 -87 38 -24 24 -51 59 -59 76
-16 30 -15 35 10 115 20 64 24 88 16 98 -22 26 -156 98 -191 103 -33 4 -38 0
-83 -56 -54 -69 -82 -81 -163 -70 -66 9 -97 32 -120 88 -41 99 -56 104 -189
65z m365 -481 c85 -30 149 -90 190 -178 25 -53 28 -71 27 -145 -2 -70 -7 -95
-29 -140 -103 -208 -371 -259 -536 -102 -146 139 -143 364 7 500 42 38 107 72
153 79 18 3 34 6 36 8 8 7 112 -7 152 -22z"/>
</g>
</svg>
